<svg aria-hidden="true" style="position: absolute; width: 0; height: 0; overflow: hidden;" version="1.1" xmlns="http://www.w3.org/2000/svg" xmlns:xlink="http://www.w3.org/1999/xlink">
<defs>
    <symbol id="icon_like-check" viewBox="0 0 32 32">
    <path d="M28.566 2.477c-1.582-1.251-3.327-1.885-5.188-1.885-2.348 0-4.884 1.039-7.378 3.015-2.494-1.976-5.030-3.015-7.378-3.015-1.861 0-3.606 0.634-5.188 1.885-2.314 1.83-3.469 4.139-3.433 6.864 0.125 9.329 14.733 20.337 15.354 20.801l0.645 0.481 0.645-0.481c0.622-0.464 15.23-11.472 15.354-20.801 0.036-2.724-1.119-5.034-3.433-6.864z"></path>
    </symbol>
    <symbol id="icon_menu" viewBox="0 0 32 32">
    <path fill="none" stroke-linejoin="miter" stroke-linecap="butt" stroke-miterlimit="4" stroke-width="6.4" d="M20.364 0h8.727c1.607 0 2.909 1.302 2.909 2.909v8.727c0 1.607-1.302 2.909-2.909 2.909h-8.727c-1.607 0-2.909-1.302-2.909-2.909v-8.727c0-1.607 1.302-2.909 2.909-2.909z"></path>
    <path fill="none" stroke-linejoin="miter" stroke-linecap="butt" stroke-miterlimit="4" stroke-width="6.4" d="M2.909 0h8.727c1.607 0 2.909 1.302 2.909 2.909v8.727c0 1.607-1.302 2.909-2.909 2.909h-8.727c-1.607 0-2.909-1.302-2.909-2.909v-8.727c0-1.607 1.302-2.909 2.909-2.909z"></path>
    <path fill="none" stroke-linejoin="miter" stroke-linecap="butt" stroke-miterlimit="4" stroke-width="6.4" d="M20.364 17.455h8.727c1.607 0 2.909 1.302 2.909 2.909v8.727c0 1.607-1.302 2.909-2.909 2.909h-8.727c-1.607 0-2.909-1.302-2.909-2.909v-8.727c0-1.607 1.302-2.909 2.909-2.909z"></path>
    <path fill="none" stroke-linejoin="miter" stroke-linecap="butt" stroke-miterlimit="4" stroke-width="6.4" d="M2.909 17.455h8.727c1.607 0 2.909 1.302 2.909 2.909v8.727c0 1.607-1.302 2.909-2.909 2.909h-8.727c-1.607 0-2.909-1.302-2.909-2.909v-8.727c0-1.607 1.302-2.909 2.909-2.909z"></path>
    </symbol>
    <symbol id="icon_user" viewBox="0 0 32 32">
    <path fill="none" stroke-linejoin="miter" stroke-linecap="butt" stroke-miterlimit="22.9256" stroke-width="2" d="M15.933 1.067c8.248 0 14.933 6.686 14.933 14.933s-6.686 14.933-14.933 14.933c-8.247 0-14.933-6.686-14.933-14.933s6.686-14.933 14.933-14.933v0z"></path>
    <path fill="none" stroke-linejoin="miter" stroke-linecap="butt" stroke-miterlimit="22.9256" stroke-width="2" d="M25.166 27.737c-2.541 2.002-5.748 3.196-9.233 3.196-3.489 0-6.699-1.197-9.241-3.202l4.23-2.562c0.954-0.578 2.125-1.21 2.121-2.358-0.002-0.512-0.004-1.023-0.005-1.535-0.874-0.95-1.407-2.126-1.686-3.699-0.495-0.098-0.96-0.119-1.188-0.847s-0.211-2.21-0.055-2.895c0.156-0.685 0.604-0.639 0.905-0.846 0.001-1.16 0.002-2.321 0.003-3.481 0.004-5.181 9.81-5.181 9.814 0 0.001 1.16 0.002 2.321 0.003 3.481 0.302 0.207 0.75 0.16 0.905 0.846s0.173 2.166-0.055 2.895c-0.228 0.729-0.693 0.749-1.188 0.847-0.279 1.573-0.812 2.749-1.686 3.699-0.002 0.512-0.004 1.024-0.005 1.535-0.004 1.148 1.167 1.78 2.121 2.358l4.241 2.568z"></path>
    </symbol>
    <symbol id="icon_youtube" viewBox="0 0 32 32">
    <path d="M29.521 8.465c-0.333-1.278-1.313-2.284-2.558-2.626-2.256-0.621-11.301-0.621-11.301-0.621s-9.046 0-11.302 0.621c-1.245 0.342-2.225 1.348-2.558 2.626-0.604 2.316-0.604 7.149-0.604 7.149s0 4.833 0.604 7.149c0.333 1.278 1.313 2.284 2.558 2.626 2.256 0.621 11.302 0.621 11.302 0.621s9.046 0 11.301-0.621c1.245-0.342 2.225-1.348 2.558-2.626 0.604-2.316 0.604-7.149 0.604-7.149s0-4.833-0.604-7.149z"></path>
    <path fill="#333" style="fill: var(--color4, #333)" d="M12.954 20.587v-9.040l7.232 4.52-7.232 4.52z"></path>
    </symbol>
    <symbol id="icon_telegram" viewBox="0 0 32 32">
    <path d="M12.12 19.957l11.443 8.486c1.286 0.771 2.186 0.386 2.571-1.157l4.629-21.985c0.514-1.929-0.771-2.829-1.929-2.186l-27.386 10.414c-1.929 0.771-1.8 1.8-0.386 2.186l7.071 2.186 16.2-10.286c0.771-0.514 1.414-0.257 0.9 0.257l-13.114 12.086z"></path>
    </symbol>
    <symbol id="icon_insta" viewBox="0 0 32 32">
    <path d="M16.029 11.457c-2.577 0-4.541 2.086-4.541 4.541 0 2.577 2.086 4.541 4.541 4.541 2.577 0 4.541-2.086 4.541-4.541 0-2.577-1.964-4.541-4.541-4.541z"></path>
    <path d="M22.014 1.273h-12.027c-4.786 0-8.714 3.927-8.714 8.714v12.027c0 4.786 3.927 8.714 8.714 8.714h12.027c4.786 0 8.714-3.927 8.714-8.714v-12.027c0-4.786-3.927-8.714-8.714-8.714zM16.001 23.61c-4.173 0-7.609-3.436-7.609-7.609s3.436-7.609 7.609-7.609c4.173 0 7.609 3.436 7.609 7.609s-3.436 7.609-7.609 7.609zM23.61 10.233c-0.982 0-1.841-0.859-1.841-1.841s0.859-1.841 1.841-1.841c0.982 0 1.841 0.859 1.841 1.841s-0.859 1.841-1.841 1.841z"></path>
    </symbol>
    <symbol id="icon_viber" viewBox="0 0 32 32">
    <path d="M27.087 23.321c-1.304 1.097-3.195 1.883-5.671 2.359s-5.028 0.616-7.655 0.418l-4.99 3.559v-4.449c-1.644-0.485-2.93-1.114-3.856-1.887-1.096-0.917-1.947-2.233-2.552-3.95s-0.907-3.469-0.907-5.258c0-1.788 0.302-3.541 0.907-5.258s1.46-3.038 2.566-3.963c1.106-0.926 2.689-1.636 4.749-2.13s4.168-0.741 6.323-0.741c2.155 0 4.262 0.247 6.323 0.741s3.643 1.204 4.749 2.13c1.106 0.926 1.961 2.247 2.566 3.963s0.907 3.469 0.907 5.258-0.302 3.541-0.907 5.258c-0.605 1.717-1.455 3.033-2.552 3.95zM19.573 16.716l1.843 0.297c-0.151-2.157-1.025-3.999-2.623-5.527s-3.53-2.364-5.798-2.508l0.312 1.753c1.626 0.198 3.024 0.854 4.196 1.968s1.862 2.454 2.070 4.017zM13.619 12.537l0.34 1.941c0.756 0.36 1.314 0.89 1.673 1.591l2.041 0.324c-0.227-0.953-0.709-1.775-1.446-2.467s-1.607-1.155-2.609-1.389zM10.585 14.127v-1.726c0-0.306-0.118-0.611-0.354-0.917s-0.487-0.526-0.751-0.661c-0.265-0.135-0.463-0.148-0.595-0.040l-1.304 1.267c-0.737 0.701-0.846 1.793-0.326 3.276s1.512 2.921 2.977 4.314c1.465 1.393 2.977 2.337 4.537 2.831s2.698 0.391 3.417-0.31l1.333-1.267c0.132-0.108 0.128-0.292-0.014-0.553s-0.373-0.499-0.695-0.715c-0.321-0.216-0.643-0.324-0.964-0.324h-1.815l-1.049 0.863c-0.832-0.216-1.867-0.912-3.105-2.090s-1.971-2.17-2.197-2.979l0.907-0.971zM12.399 5.499l0.284 1.753c1.89 0.036 3.639 0.508 5.245 1.416s2.883 2.121 3.828 3.64c0.945 1.519 1.446 3.177 1.503 4.975l1.843 0.297c0-1.636-0.335-3.2-1.007-4.691s-1.574-2.777-2.708-3.856c-1.134-1.079-2.486-1.937-4.055-2.575s-3.213-0.957-4.934-0.957z"></path>
    </symbol>
    <symbol id="icon_facebook" viewBox="0 0 32 32">
    <path d="M22.224 17.695l0.829-5.225h-5.187v-3.389c0-1.43 0.723-2.824 3.047-2.824h2.36v-4.448c0 0-2.141-0.353-4.186-0.353-4.274 0-7.065 2.503-7.065 7.033v3.982h-4.749v5.225h4.749v12.632c0.953 0.145 1.929 0.219 2.922 0.219s1.969-0.074 2.922-0.219v-12.632h4.358z"></path>
    </symbol>
    <symbol id="icon_price" viewBox="0 0 32 32">
    <path fill="none" stroke-linejoin="miter" stroke-linecap="butt" stroke-miterlimit="4" stroke-width="2" d="M21.586 2.667h-10.62c-0.175 0-0.317 0.142-0.317 0.317v14.762h-4.947c-0.139 0-0.211 0.167-0.115 0.268l10.457 11.073c0.126 0.133 0.338 0.133 0.463-0.002l10.307-11.073c0.094-0.102 0.022-0.267-0.116-0.267h-4.794v-14.762c0-0.175-0.142-0.317-0.317-0.317z"></path>
    </symbol>
    <symbol id="icon_consultation" viewBox="0 0 32 32">
    <path fill="none" stroke-linejoin="round" stroke-linecap="round" stroke-miterlimit="4" stroke-width="1.9592" d="M27.646 19.918c0 0.693-0.275 1.357-0.765 1.847s-1.154 0.765-1.847 0.765h-15.673l-5.224 5.224v-20.898c0-0.693 0.275-1.357 0.765-1.847s1.154-0.765 1.847-0.765h18.286c0.693 0 1.357 0.275 1.847 0.765s0.765 1.154 0.765 1.847v13.061z"></path>
    </symbol>
    <symbol id="icon_free" viewBox="0 0 32 32">
    <path fill="none" stroke-linejoin="round" stroke-linecap="round" stroke-miterlimit="4" stroke-width="1.9592" d="M26.707 16v13.061h-20.898v-13.061"></path>
    <path fill="none" stroke-linejoin="round" stroke-linecap="round" stroke-miterlimit="4" stroke-width="1.9592" d="M29.17 9.469h-26.122v6.531h26.122v-6.531z"></path>
    <path fill="none" stroke-linejoin="round" stroke-linecap="round" stroke-miterlimit="4" stroke-width="1.9592" d="M16.109 29.061v-19.592"></path>
    <path fill="none" stroke-linejoin="round" stroke-linecap="round" stroke-miterlimit="4" stroke-width="1.9592" d="M16.295 9.544h-5.878c-0.866 0-1.697-0.344-2.309-0.956s-0.956-1.443-0.956-2.309c0-0.866 0.344-1.697 0.956-2.309s1.443-0.956 2.309-0.956c4.571 0 5.878 6.531 5.878 6.531z"></path>
    <path fill="none" stroke-linejoin="round" stroke-linecap="round" stroke-miterlimit="4" stroke-width="1.9592" d="M16.109 9.544h5.878c0.866 0 1.697-0.344 2.309-0.956s0.956-1.443 0.956-2.309-0.344-1.697-0.956-2.309c-0.612-0.612-1.443-0.956-2.309-0.956-4.571 0-5.878 6.531-5.878 6.531z"></path>
    </symbol>
    <symbol id="icon_guarantee" viewBox="0 0 32 32">
    <path fill="none" stroke-linejoin="round" stroke-linecap="round" stroke-miterlimit="4" stroke-width="2" d="M16 29.333c0 0 10.667-5.333 10.667-13.333v-9.333l-10.667-4-10.667 4v9.333c0 8 10.667 13.333 10.667 13.333z"></path>
    </symbol>
    <symbol id="icon_calendar" viewBox="0 0 32 32">
    <path d="M7.518 7.934h0.44c0.669 0 1.211-0.542 1.211-1.211v-4.593c0-0.669-0.542-1.211-1.211-1.211h-0.44c-0.669 0-1.211 0.542-1.211 1.211v4.593c0 0.669 0.542 1.211 1.211 1.211z"></path>
    <path d="M23.053 7.904h0.44c0.669 0 1.211-0.542 1.211-1.211v-4.593c0-0.669-0.542-1.211-1.211-1.211h-0.44c-0.669 0-1.211 0.542-1.211 1.211v4.593c0 0.669 0.542 1.211 1.211 1.211z"></path>
    <path d="M28.797 3.38h-3.108v3.629c0 1.211-0.985 1.879-2.196 1.879h-0.44c-1.211 0-2.196-0.985-2.196-2.196v-3.312h-10.703v3.342c0 1.211-0.985 2.196-2.196 2.196h-0.44c-1.211 0-2.196-0.985-2.196-2.196v-3.342h-3.354c-1.086 0-1.969 0.883-1.969 1.969v23.793c0 1.086 0.883 1.969 1.969 1.969h26.828c1.086 0 1.969-0.883 1.969-1.969v-23.793c0-1.086-0.883-1.969-1.969-1.969zM28.797 29.142h-26.828l-0-17.968h26.829l0.001 17.968c-0 0-0.001 0-0.001 0z"></path>
    <path d="M16.4 17.201h3.535c0.14 0 0.254-0.114 0.254-0.254v-3.061c0-0.14-0.114-0.254-0.254-0.254h-3.535c-0.14 0-0.254 0.114-0.254 0.254v3.061c0 0.14 0.114 0.254 0.254 0.254z"></path>
    <path d="M22.17 17.201h3.535c0.14 0 0.254-0.114 0.254-0.254v-3.061c0-0.14-0.114-0.254-0.254-0.254h-3.535c-0.14 0-0.254 0.114-0.254 0.254v3.061c0 0.14 0.114 0.254 0.254 0.254z"></path>
    <path d="M4.861 22.213h3.535c0.14 0 0.254-0.114 0.254-0.254v-3.061c0-0.14-0.114-0.254-0.254-0.254h-3.535c-0.14 0-0.254 0.114-0.254 0.254v3.061c0 0.14 0.114 0.254 0.254 0.254z"></path>
    <path d="M10.63 22.213h3.535c0.14 0 0.254-0.114 0.254-0.254v-3.061c0-0.14-0.114-0.254-0.254-0.254h-3.535c-0.14 0-0.254 0.114-0.254 0.254v3.061c0 0.14 0.114 0.254 0.254 0.254z"></path>
    <path d="M16.4 22.213h3.535c0.14 0 0.254-0.114 0.254-0.254v-3.061c0-0.14-0.114-0.254-0.254-0.254h-3.535c-0.14 0-0.254 0.114-0.254 0.254v3.061c0 0.14 0.114 0.254 0.254 0.254z"></path>
    <path d="M22.17 22.213h3.535c0.14 0 0.254-0.114 0.254-0.254v-3.061c0-0.14-0.114-0.254-0.254-0.254h-3.535c-0.14 0-0.254 0.114-0.254 0.254v3.061c0 0.14 0.114 0.254 0.254 0.254z"></path>
    <path d="M8.396 23.656h-3.535c-0.14 0-0.254 0.114-0.254 0.254v3.061c0 0.14 0.114 0.254 0.254 0.254h3.535c0.14 0 0.254-0.114 0.254-0.254v-3.061c-0-0.14-0.114-0.254-0.254-0.254z"></path>
    <path d="M14.165 23.656h-3.535c-0.14 0-0.254 0.114-0.254 0.254v3.061c0 0.14 0.114 0.254 0.254 0.254h3.535c0.14 0 0.254-0.114 0.254-0.254v-3.061c0-0.14-0.114-0.254-0.254-0.254z"></path>
    <path d="M19.935 23.656h-3.535c-0.14 0-0.254 0.114-0.254 0.254v3.061c0 0.14 0.114 0.254 0.254 0.254h3.535c0.14 0 0.254-0.114 0.254-0.254v-3.061c0-0.14-0.114-0.254-0.254-0.254z"></path>
    <path d="M25.705 23.656h-3.535c-0.14 0-0.254 0.114-0.254 0.254v3.061c0 0.14 0.114 0.254 0.254 0.254h3.535c0.14 0 0.254-0.114 0.254-0.254v-3.061c0-0.14-0.114-0.254-0.254-0.254z"></path>
    </symbol>
    <symbol id="icon_comment" viewBox="0 0 32 32">
    <path d="M24 1.2h-16c-2.015 0.003-3.946 0.804-5.371 2.229s-2.226 3.356-2.229 5.371v20.8c0 0.237 0.071 0.469 0.203 0.666s0.319 0.351 0.538 0.442c0.219 0.091 0.46 0.114 0.693 0.068s0.446-0.16 0.614-0.328l3.862-3.862c0.186-0.186 0.406-0.334 0.649-0.434s0.504-0.152 0.766-0.151h16.274c2.015-0.003 3.947-0.804 5.371-2.229s2.226-3.356 2.229-5.371v-9.6c-0.003-2.015-0.804-3.946-2.229-5.371s-3.356-2.226-5.371-2.229zM29.2 18.4c-0.002 1.379-0.55 2.7-1.525 3.675s-2.296 1.523-3.675 1.525h-16.274c-0.578-0.002-1.151 0.111-1.685 0.333s-1.019 0.547-1.427 0.957l-1.814 1.813v-17.902c0.002-1.379 0.55-2.7 1.525-3.675s2.296-1.523 3.675-1.525h16c1.379 0.002 2.7 0.55 3.675 1.525s1.523 2.296 1.525 3.675v9.6z"></path>
    </symbol>
    <symbol id="icon_star" viewBox="0 0 32 32">
    <path fill="#ff9c54" style="fill: var(--color6, #ff9c54)" opacity="0.3" d="M14.219 2.491c0.742-1.454 2.821-1.454 3.563 0l3.152 6.176c0.291 0.569 0.836 0.966 1.467 1.066l6.848 1.089c1.613 0.257 2.255 2.233 1.101 3.388l-4.9 4.906c-0.452 0.452-0.66 1.093-0.56 1.725l1.080 6.849c0.254 1.613-1.427 2.835-2.882 2.094l-6.18-3.144c-0.57-0.29-1.244-0.29-1.814 0l-6.18 3.144c-1.455 0.74-3.137-0.481-2.882-2.094l1.080-6.849c0.1-0.631-0.109-1.273-0.56-1.725l-4.9-4.906c-1.154-1.155-0.512-3.132 1.101-3.388l6.848-1.089c0.631-0.1 1.177-0.497 1.467-1.066l3.152-6.176z"></path>
    </symbol>
    <symbol id="icon_arrow-l" viewBox="0 0 32 32">
    <path fill="none" stroke-linejoin="miter" stroke-linecap="round" stroke-miterlimit="4" stroke-width="3.2" d="M23.467 29.867l-13.867-13.867 13.867-13.867"></path>
    </symbol>
    <symbol id="icon_arrow-r" viewBox="0 0 32 32">
    <path fill="none" stroke-linejoin="miter" stroke-linecap="round" stroke-miterlimit="4" stroke-width="3.2" d="M8.533 29.867l13.867-13.867-13.867-13.867"></path>
    </symbol>
    <symbol id="icon_arrow-b" viewBox="0 0 50 32">
    <path fill="none" stroke-linejoin="miter" stroke-linecap="round" stroke-miterlimit="4" stroke-width="9.1429" d="M4.571 4.571l20.571 18.286 20.571-18.286"></path>
    </symbol>
    <symbol id="icon_arrow-link" viewBox="0 0 32 32">
    <path d="M31.507 17.191c0.658-0.658 0.658-1.724 0-2.382l-10.718-10.718c-0.658-0.658-1.724-0.658-2.382 0s-0.658 1.724 0 2.382l9.527 9.527-9.527 9.527c-0.658 0.658-0.658 1.724 0 2.382s1.724 0.658 2.382 0l10.718-10.718zM0 17.684h30.316v-3.368h-30.316v3.368z"></path>
    </symbol>
    <symbol id="icon_cart" viewBox="0 0 32 32">
    <path d="M1.332 1.089h4.246c0.599 0 1.128 0.348 1.262 0.977l4.578 17.615h13.523l3.252-10.373h-19.584c-0.727 0-0.234-0.574-0.234-1.337s-1.103-1.447-0.376-1.447h21.985c0.988 0 1.505 1.017 1.262 1.807l-4.112 13.164c-0.198 0.555-0.727 0.904-1.262 0.904h-15.39c-0.599 0-1.128-0.415-1.326-0.904l-4.578-17.615h-3.252c-0.727 0-1.326-0.629-1.326-1.392s0.599-1.399 1.333-1.399z"></path>
    <path d="M25.436 25.634c1.513 0 2.739 1.287 2.739 2.875s-1.226 2.875-2.739 2.875c-1.513 0-2.739-1.287-2.739-2.875s1.226-2.875 2.739-2.875z"></path>
    <path d="M11.348 25.634c1.513 0 2.739 1.287 2.739 2.875s-1.226 2.875-2.739 2.875c-1.513 0-2.739-1.287-2.739-2.875s1.226-2.875 2.739-2.875z"></path>
    </symbol>
    <symbol id="icon_like" viewBox="0 0 32 32">
    <path d="M27.755 3.546c-1.537-1.215-3.233-1.831-5.041-1.831-2.281 0-4.745 1.010-7.168 2.93-2.423-1.92-4.887-2.93-7.168-2.93-1.808 0-3.504 0.616-5.041 1.831-2.249 1.778-3.371 4.022-3.336 6.669 0.121 9.064 14.314 19.759 14.918 20.21l0.627 0.468 0.627-0.468c0.604-0.451 14.797-11.146 14.918-20.21 0.035-2.647-1.087-4.891-3.335-6.669zM21.999 21.386c-2.628 2.741-5.279 4.922-6.454 5.851-1.175-0.929-2.963-2.215-5.59-4.955-4.502-4.695-6.904-8.879-6.946-12.099-0.025-1.93 0.79-3.522 2.491-4.868 1.155-0.913 1.549-0.48 2.876-0.48 2.512 0 4.911 1.622 6.481 2.982l0.688 0.596 0.688-0.596c1.57-1.361 3.969-2.982 6.481-2.982 1.327 0 2.585 0.463 3.74 1.376 1.702 1.346 1.627 3.776 1.614 4.719-0.035 2.687-1.567 5.761-6.069 10.457z"></path>
    </symbol>
    <symbol id="icon_menu-mob" viewBox="0 0 32 32">
    <path fill="none" stroke="#fff" style="stroke: var(--color2, #fff)" stroke-linejoin="miter" stroke-linecap="round" stroke-miterlimit="4" stroke-width="2.4" d="M1.2 26h29.6"></path>
    <path fill="none" stroke="#fff" style="stroke: var(--color2, #fff)" stroke-linejoin="miter" stroke-linecap="round" stroke-miterlimit="4" stroke-width="2.4" d="M1.2 6.8h29.6"></path>
    <path fill="none" stroke="#fff" style="stroke: var(--color2, #fff)" stroke-linejoin="miter" stroke-linecap="round" stroke-miterlimit="4" stroke-width="2.4" d="M1.2 16.4h29.6"></path>
    </symbol>
    <symbol id="icon_search" viewBox="0 0 32 32">
    <path d="M12.602 24.965c2.72 0 5.26-0.876 7.325-2.337l7.768 7.694c0.36 0.357 0.836 0.536 1.327 0.536 1.065 0 1.835-0.812 1.835-1.851 0-0.487-0.164-0.942-0.524-1.299l-7.718-7.662c1.622-2.11 2.589-4.724 2.589-7.564 0-6.866-5.67-12.482-12.602-12.482-6.948 0-12.602 5.616-12.602 12.482s5.654 12.482 12.602 12.482zM12.602 22.27c-5.424 0-9.882-4.431-9.882-9.788s4.457-9.788 9.882-9.788c5.408 0 9.882 4.431 9.882 9.788s-4.474 9.788-9.882 9.788z"></path>
    </symbol>
    <symbol id="icon_lang" viewBox="0 0 32 32">
    <path fill="none" stroke-linejoin="miter" stroke-linecap="round" stroke-miterlimit="22.9256" stroke-width="1.8963" d="M16 30.815c8.182 0 14.815-6.633 14.815-14.815s-6.633-14.815-14.815-14.815c-8.182 0-14.815 6.633-14.815 14.815s6.633 14.815 14.815 14.815z"></path>
    <path fill="none" stroke-linejoin="miter" stroke-linecap="round" stroke-miterlimit="22.9256" stroke-width="1.8963" d="M1.186 16c15.429 3.547 29.629 0 29.629 0"></path>
    <path fill="none" stroke-linejoin="miter" stroke-linecap="round" stroke-miterlimit="22.9256" stroke-width="1.8963" d="M17.767 30.483c13.168-15.256 0-28.81 0-28.81"></path>
    <path fill="none" stroke-linejoin="miter" stroke-linecap="round" stroke-miterlimit="22.9256" stroke-width="1.8963" d="M14.353 30.483c-13.79-15.429-0.488-28.81-0.488-28.81"></path>
    <path fill="none" stroke-linejoin="miter" stroke-linecap="round" stroke-miterlimit="22.9256" stroke-width="1.8963" d="M26.577 26.306c-11.016-5.741-21.155 0-21.155 0"></path>
    <path fill="none" stroke-linejoin="miter" stroke-linecap="round" stroke-miterlimit="22.9256" stroke-width="1.8963" d="M26.577 5.81c-11.016 5.739-21.155 0-21.155 0"></path>
    <path fill="none" stroke-linejoin="miter" stroke-linecap="round" stroke-miterlimit="22.9256" stroke-width="1.8963" d="M16 1.185c-0.002 16.391 0 29.629 0 29.629"></path>
    </symbol>
    <symbol id="icon_phone" viewBox="0 0 27 32">
    <path fill="none" stroke-linejoin="miter" stroke-linecap="butt" stroke-miterlimit="22.9256" stroke-width="2.3704" d="M25.324 27.669c0.664 2.221-5.372 5.012-11.993 1.428-2.632-1.425-5.79-4.481-8.109-7.883-2.066-3.031-3.424-6.34-3.845-8.97-1.19-7.426 3.448-12.189 5.326-10.826s3.517 3.674 4.671 6.202-2.515 2.988-3.991 3.964c1.636 6.021 3.418 8.533 8.563 12.072 1.412-1.067 3.063-4.372 5.068-2.446s3.645 4.237 4.309 6.458z"></path>
    </symbol>
    <symbol id="icon_schedule" viewBox="0 0 32 32">
    <path fill="none" stroke-linejoin="miter" stroke-linecap="round" stroke-miterlimit="22.9256" stroke-width="2.3704" d="M16 30.815c8.182 0 14.815-6.633 14.815-14.815s-6.633-14.815-14.815-14.815c-8.182 0-14.815 6.633-14.815 14.815s6.633 14.815 14.815 14.815z"></path>
    <path fill="none" stroke-linejoin="miter" stroke-linecap="round" stroke-miterlimit="22.9256" stroke-width="2.3704" d="M16.196 5.559l-0.195 10.441 7.107 7.191"></path>
    </symbol>
    <symbol id="icon_logo" viewBox="0 0 154 32">
    <path fill="none" stroke-linejoin="miter" stroke-linecap="butt" stroke-miterlimit="4" stroke-width="1.985" d="M21.008 10.94c0 1.707-0.305 2.975-0.88 4.193-0.591 1.252-1.478 2.478-2.719 4.111-0.649 0.847-1.258 1.802-1.783 2.808l-0.051 0.108c-0.993 1.939-1.592 3.010-2.229 3.635-0.533 0.524-1.128 0.765-2.346 0.765s-1.813-0.241-2.346-0.765c-0.637-0.626-1.236-1.696-2.23-3.635-0.523-1.023-1.138-2-1.833-2.916-1.24-1.633-2.128-2.86-2.719-4.11-0.575-1.219-0.88-2.487-0.88-4.194 0-5.65 4.32-9.948 10.008-9.948s10.008 4.298 10.008 9.948z"></path>
    <path d="M8.9 28.589h4.201c0.242 0 0.438 0.196 0.438 0.438v-0.001c0 0.242-0.196 0.438-0.438 0.438h-4.201c-0.242 0-0.438-0.196-0.438-0.438v0.001c0-0.242 0.196-0.438 0.438-0.438z"></path>
    <path d="M10.028 30.34h1.945c0.242 0 0.438 0.196 0.438 0.438v-0.001c0 0.242-0.196 0.438-0.438 0.438h-1.945c-0.242 0-0.438-0.196-0.438-0.438v0.001c0-0.242 0.196-0.438 0.438-0.438z"></path>
    <path d="M10.945 2.042l1.093 2.663c0.527 1.247 0.833 2.697 0.833 4.218 0 0.673-0.060 1.332-0.175 1.972l0.010-0.067-1.761-4.962-0.77 2.481-1.101 2.594c-0.039-0.4-0.061-0.864-0.061-1.333 0-2.028 0.413-3.96 1.159-5.716l-0.036 0.096 0.809-1.944zM13.771 11.427c1.533-1.154 3.371-1.991 5.37-2.376l0.083-0.013c0.042-0.007 0.078 0.035 0.063 0.077l-0.26 0.734c-0.493 1.374-1.181 2.56-2.042 3.596l0.015-0.019c-0.935 1.028-2.084 1.843-3.377 2.379l-0.063 0.023-0.977 0.394 0.552-2.97 0.552 1.486 0.052-0.023c1.434-0.636 2.503-1.907 2.91-3.46-1.538 0.287-2.907 0.845-4.117 1.627l0.044-0.027-0.897 0.57 1.786-1.771 0.304-0.227zM8.32 11.427c-1.533-1.154-3.371-1.991-5.369-2.376l-0.083-0.013c-0.042-0.007-0.078 0.035-0.063 0.077l0.26 0.734c0.493 1.374 1.18 2.56 2.042 3.596l-0.016-0.019c0.935 1.028 2.084 1.843 3.377 2.379l0.063 0.023 0.977 0.394-0.552-2.97-0.552 1.486-0.052-0.023c-1.434-0.636-2.503-1.907-2.91-3.46 1.538 0.287 2.907 0.845 4.117 1.627l-0.044-0.027 0.897 0.57-1.786-1.771-0.304-0.227z"></path>
    <path d="M10.94 10.925c0.208 0 0.377 0.169 0.377 0.377v15.634c0 0.208-0.169 0.377-0.377 0.377s-0.377-0.169-0.377-0.377v-15.634c0-0.208 0.169-0.377 0.377-0.377z"></path>
    <path d="M8.38 17.686c-0.823-0.619-1.863-0.992-2.989-0.992-0 0-0 0-0.001 0h0c-0.012 0-0.021 0.010-0.021 0.022 0 0.001 0 0.001 0 0.002v-0l0.008 0.071c0.108 0.98 0.497 1.901 1.116 2.648 0.67 0.737 1.494 1.321 2.421 1.706l0.045 0.016 0.7 0.283-0.396-2.129-0.396 1.064-0.037-0.016c-1.029-0.471-1.794-1.365-2.080-2.454l-0.006-0.026c1.102 0.205 2.083 0.605 2.95 1.165l-0.032-0.019 0.643 0.41-1.28-1.27-0.645-0.48zM13.616 17.686c0.823-0.619 1.863-0.992 2.989-0.992 0 0 0.001 0 0.001 0h-0c0.012 0 0.022 0.011 0.021 0.024l-0.008 0.071c-0.113 1.018-0.516 1.925-1.123 2.656l0.007-0.008c-0.67 0.737-1.494 1.321-2.421 1.706l-0.045 0.016-0.7 0.283 0.396-2.129 0.396 1.064 0.037-0.016c1.029-0.471 1.794-1.365 2.080-2.454l0.006-0.026c-1.102 0.205-2.083 0.605-2.95 1.165l0.032-0.019-0.643 0.41 1.28-1.27 0.645-0.48zM39.934 24v-17.168h3.175v17.168h-3.175zM50.574 21.457h2.273c1.961 0 3.453-0.512 4.477-1.535 1.023-1.031 1.535-2.531 1.535-4.5 0-2.11-0.527-3.64-1.582-4.594-1.055-0.96-2.645-1.441-4.77-1.441h-1.933v12.070zM47.398 24v-17.168h4.969c1.5 0 2.844 0.172 4.031 0.516 1.188 0.343 2.207 0.863 3.059 1.558 0.859 0.688 1.515 1.578 1.968 2.672 0.461 1.086 0.692 2.344 0.692 3.774 0 2.773-0.836 4.91-2.508 6.41-1.672 1.492-3.989 2.238-6.95 2.238h-5.261zM65.608 24v-17.168h10.407l-0.13 2.52h-7.1v4.43h6.75v2.518h-6.75v5.168h7.359l-0.106 2.532h-10.43zM77.702 24l6.316-17.18h3.457l6.223 17.18h-3.258l-1.7-4.852h-6.010l-1.713 4.852h-3.316zM83.526 16.781h4.406c-1.406-4.508-2.129-6.836-2.168-6.984l-2.238 6.984zM101.865 24.27c-1.476 0-2.78-0.157-3.914-0.47-1.133-0.312-2.011-0.655-2.636-1.030l0.562-1.067c1.648 0.89 3.688 1.336 6.117 1.336 1.336 0 2.363-0.348 3.082-1.043 0.727-0.695 1.090-1.676 1.090-2.941 0-0.47-0.043-0.864-0.129-1.184-0.1-0.352-0.265-0.658-0.483-0.918l0.003 0.004c-0.235-0.297-0.578-0.543-1.032-0.738-0.445-0.203-1.015-0.375-1.71-0.516l-2.813-0.562c-1.57-0.313-2.75-0.805-3.539-1.477-0.781-0.672-1.172-1.629-1.172-2.871 0-0.805 0.156-1.5 0.469-2.086 0.315-0.594 0.774-1.076 1.331-1.409l0.016-0.009c0.591-0.348 1.278-0.616 2.007-0.766l0.043-0.007c0.781-0.172 1.668-0.258 2.66-0.258 0.985 0 1.946 0.12 2.883 0.363 0.946 0.242 1.719 0.516 2.321 0.82l-0.387 1.149c-0.461-0.258-1.145-0.5-2.051-0.727-0.829-0.223-1.781-0.351-2.763-0.351-0.013 0-0.027 0-0.040 0h0.002c-1.648 0-2.886 0.277-3.715 0.832-0.828 0.547-1.242 1.414-1.242 2.601 0 0.742 0.262 1.34 0.785 1.793 0.524 0.446 1.297 0.778 2.32 0.996l3.141 0.645c0.782 0.164 1.442 0.36 1.981 0.586 0.547 0.226 1.027 0.52 1.441 0.879 0.422 0.36 0.735 0.808 0.938 1.347 0.203 0.532 0.304 1.165 0.304 1.899 0 1.64-0.539 2.914-1.617 3.82-1.070 0.906-2.488 1.36-4.254 1.36zM109.33 24l6.808-17.438h1.442l6.562 17.438h-1.547l-2.226-5.918h-7.231l-2.32 5.918h-1.488zM113.713 16.98h6.117c-1.758-5.046-2.754-8.015-2.989-8.906-0.093 0.344-0.402 1.258-0.925 2.742-1.649 5.028-2.157 6.418-2.672 7.806l1.172-3.61-0.703 1.968zM128.325 22.746h3.422c2.422 0 4.266-0.617 5.531-1.851 1.274-1.243 1.911-3.090 1.911-5.543 0-1.344-0.18-2.504-0.539-3.48-0.352-0.977-0.872-1.759-1.559-2.345-0.681-0.584-1.496-1.031-2.393-1.289l-0.045-0.011c-0.937-0.282-2.019-0.422-3.246-0.422h-3.082v14.941zM126.825 24v-17.438h4.723c1.422 0 2.691 0.168 3.809 0.504 1.125 0.336 2.101 0.852 2.929 1.547 0.828 0.688 1.465 1.598 1.91 2.73 0.446 1.126 0.668 2.442 0.668 3.95 0 2.852-0.785 5.016-2.355 6.492-1.57 1.477-3.77 2.215-6.598 2.215h-5.086z"></path>
    </symbol>
    <symbol id="icon_watch" viewBox="0 0 32 32">
        <path fill="none" stroke-linejoin="round" stroke-linecap="round" stroke-miterlimit="4" stroke-width="3" d="M16 30c7.732 0 14-6.268 14-14s-6.268-14-14-14c-7.732 0-14 6.268-14 14s6.268 14 14 14z"></path>
        <path fill="none" stroke-linejoin="round" stroke-linecap="round" stroke-miterlimit="4" stroke-width="3" d="M16 10v7.5l6 2.5"></path>
    </symbol>
</defs>
</svg>
