<svg width="18" height="18" viewBox="0 0 18 18" fill="none" xmlns="http://www.w3.org/2000/svg">
<path opacity="0.3" d="M8.10928 1.74536C8.48042 1.01811 9.51957 1.01811 9.89072 1.74536L11.4667 4.83349C11.612 5.11821 11.8847 5.31631 12.2003 5.36652L15.6243 5.91107C16.4307 6.03931 16.7518 7.02761 16.1748 7.60531L13.7248 10.0584C13.499 10.2846 13.3948 10.6051 13.4446 10.9209L13.9848 14.3456C14.112 15.1521 13.2713 15.7629 12.5436 15.3927L9.45342 13.8207C9.16851 13.6757 8.83149 13.6757 8.54658 13.8207L5.45643 15.3927C4.72871 15.7629 3.88802 15.1521 4.01523 14.3456L4.55539 10.9209C4.60519 10.6051 4.50105 10.2846 4.27516 10.0584L1.82518 7.60531C1.24821 7.02761 1.56933 6.03932 2.37567 5.91107L5.79966 5.36652C6.11535 5.31631 6.38801 5.11821 6.53331 4.83349L8.10928 1.74536Z" fill="#FF9C54"/>
</svg>
